<?xml version="1.0" encoding="iso-8859-1"?>
<!-- Generator: Adobe Illustrator 19.0.0, SVG Export Plug-In . SVG Version: 6.00 Build 0)  -->
<svg version="1.1" id="Layer_1" xmlns="http://www.w3.org/2000/svg" xmlns:xlink="http://www.w3.org/1999/xlink" x="0px" y="0px"
	 viewBox="0 0 512 512" style="enable-background:new 0 0 512 512;" xml:space="preserve">
<path style="fill:#FFFFFF;" d="M334.394,508H55.892c-15.731-0.044-28.473-12.786-28.518-28.518V32.517
	C27.419,16.786,40.16,4.044,55.892,4H379.27c15.731,0.044,28.473,12.786,28.518,28.518v402.298"/>
<path style="fill:#8E8E8E;" d="M334.401,512H55.892c-17.946-0.027-32.487-14.571-32.509-32.517V32.517
	C23.405,14.571,37.945,0.027,55.892,0H379.27c17.949,0.022,32.495,14.568,32.517,32.517v402.298h-7.999V32.517
	c-0.018-13.531-10.979-24.496-24.51-24.518H55.892C42.362,8.021,31.4,18.986,31.383,32.517v446.958
	c0.018,13.531,10.979,24.496,24.51,24.518h278.51L334.401,512L334.401,512z"/>
<path d="M334.394,450.246v61.707l77.152-77.137h-61.722C341.311,434.837,334.415,441.733,334.394,450.246z"/>
<rect x="433.982" y="330.427" transform="matrix(0.707 -0.7072 0.7072 0.707 -137.2346 426.3629)" width="23.927" height="96.755"/>
<path style="fill:#FFFFFF;" d="M296.525,388.699c-87.995-0.004-159.325-71.342-159.321-159.337
	c0.005-87.995,71.342-159.325,159.337-159.321c87.988,0.004,159.316,71.332,159.321,159.321
	C455.765,317.321,384.485,388.603,296.525,388.699z"/>
<path style="fill:#E21B1B;" d="M296.534,78.025c83.582,0.013,151.327,67.781,151.314,151.361
	c-0.013,83.582-67.781,151.327-151.361,151.314c-83.572-0.013-151.314-67.766-151.314-151.338
	C145.264,145.81,212.981,78.104,296.534,78.025 M296.534,62.026c-92.418,0-167.336,74.919-167.336,167.336
	s74.919,167.336,167.336,167.336s167.336-74.92,167.336-167.336S388.95,62.026,296.534,62.026L296.534,62.026z"/>
<path style="fill:#FFFFFF;" d="M296.525,365.598c-75.24-0.004-136.231-61.003-136.227-136.243
	c0.004-75.24,61.003-136.231,136.244-136.227c75.237,0.004,136.227,60.998,136.227,136.235
	C432.685,304.572,371.734,365.519,296.525,365.598z"/>
<path style="fill:#CCCCCC;" d="M296.534,97.127c73.032,0,132.235,59.204,132.235,132.235s-59.204,132.235-132.235,132.235
	s-132.235-59.204-132.235-132.235l0,0C164.381,156.365,223.536,97.211,296.534,97.127 M296.534,89.128
	c-77.449,0-140.234,62.785-140.234,140.234s62.785,140.234,140.234,140.234s140.234-62.785,140.234-140.234
	S373.983,89.128,296.534,89.128L296.534,89.128z"/>
<rect x="236.312" y="222.916" style="fill:#E21B1B;" width="20.071" height="54.899"/>
<g>
	<rect x="202.863" y="245.374" style="fill:#6B6B6B;" width="20.071" height="32.453"/>
	<rect x="269.771" y="192.417" style="fill:#6B6B6B;" width="20.071" height="85.409"/>
</g>
<rect x="303.221" y="137.507" style="fill:#E21B1B;" width="20.071" height="140.309"/>
<rect x="336.67" y="165.816" style="fill:#6B6B6B;" width="20.071" height="112.001"/>
<rect x="370.129" y="210.918" style="fill:#E21B1B;" width="20.071" height="67.106"/>
<g>
</g>
<g>
</g>
<g>
</g>
<g>
</g>
<g>
</g>
<g>
</g>
<g>
</g>
<g>
</g>
<g>
</g>
<g>
</g>
<g>
</g>
<g>
</g>
<g>
</g>
<g>
</g>
<g>
</g>
</svg>
