<?xml version="1.0" encoding="iso-8859-1"?>
<!-- Generator: Adobe Illustrator 19.0.0, SVG Export Plug-In . SVG Version: 6.00 Build 0)  -->
<svg version="1.1" id="Layer_1" xmlns="http://www.w3.org/2000/svg" xmlns:xlink="http://www.w3.org/1999/xlink" x="0px" y="0px"
	 viewBox="0 0 512 512" style="enable-background:new 0 0 512 512;" xml:space="preserve">
<circle style="fill:#E0306C;" cx="256" cy="256" r="256"/>
<path style="fill:#E0306C;" d="M374.71,132.922c-30.587,3.872-62.479,3.737-94.575,0.681
	c-44.822-3.448-110.33-24.135-134.465,17.239c-38.772,66.236-19.649,151.035-10.614,226.078l134.737,134.708
	c130.388-6.923,234.886-111.407,241.831-241.79L374.71,132.922z"/>
<g>
	<path style="fill:#FFFFFF;" d="M315.227,109.468H196.772c-48.14,0-87.304,39.164-87.304,87.304v118.455
		c0,48.138,39.164,87.305,87.305,87.305h118.455c48.138,0,87.305-39.165,87.305-87.305V196.772
		C402.532,148.632,363.367,109.468,315.227,109.468L315.227,109.468z M373.05,315.228c0,31.934-25.888,57.822-57.822,57.822H196.773
		c-31.934,0-57.822-25.888-57.822-57.822V196.773c0-31.934,25.888-57.823,57.822-57.823h118.455
		c31.934,0,57.822,25.89,57.822,57.823V315.228z"/>
	<path style="fill:#FFFFFF;" d="M256,180.202c-41.794,0-75.798,34.004-75.798,75.798c0,41.791,34.004,75.795,75.798,75.795
		s75.795-34.001,75.795-75.795S297.794,180.202,256,180.202L256,180.202z M256,302.313c-25.579,0-46.316-20.733-46.316-46.313
		s20.737-46.316,46.316-46.316s46.313,20.735,46.313,46.316C302.313,281.579,281.579,302.313,256,302.313L256,302.313z"/>
</g>
<g>
</g>
<g>
</g>
<g>
</g>
<g>
</g>
<g>
</g>
<g>
</g>
<g>
</g>
<g>
</g>
<g>
</g>
<g>
</g>
<g>
</g>
<g>
</g>
<g>
</g>
<g>
</g>
<g>
</g>
</svg>
