<?xml version="1.0" encoding="iso-8859-1"?>
<!-- Generator: Adobe Illustrator 19.0.0, SVG Export Plug-In . SVG Version: 6.00 Build 0)  -->
<svg version="1.1" id="Layer_1" xmlns="http://www.w3.org/2000/svg" xmlns:xlink="http://www.w3.org/1999/xlink" x="0px" y="0px"
	 viewBox="0 0 512 512" style="enable-background:new 0 0 512 512;" xml:space="preserve">
<polygon style="fill:#FFDB56;" points="9.002,207.474 147.56,75.956 263.023,242.247 355.394,188.796 473.741,313.514 
	473.741,503.56 9.002,503.56 "/>
<polygon style="fill:#FBA806;" points="440.545,278.531 440.545,503.56 473.741,503.56 473.741,313.514 "/>
<polygon style="fill:#F77935;" points="9.002,503.56 9.002,329.675 147.56,207.474 248.446,374.757 355.394,297.474 
	473.741,400.517 473.741,503.56 "/>
<polygon style="fill:#D9510D;" points="440.545,371.614 440.545,503.56 473.741,503.56 473.741,400.518 "/>
<path d="M9.002,110.425c4.661,0,8.44-3.778,8.44-8.44V8.44c0-4.662-3.779-8.44-8.44-8.44s-8.44,3.778-8.44,8.44v93.546
	C0.563,106.647,4.341,110.425,9.002,110.425z"/>
<path d="M502.998,495.121H482.18v-94.603v-87.003c0-2.162-0.829-4.24-2.318-5.809l-118.345-124.72
	c-2.688-2.835-6.967-3.449-10.349-1.495l-38.353,22.194c-4.034,2.334-5.413,7.497-3.077,11.532c2.334,4.035,7.495,5.41,11.532,3.077
	l32.588-18.857l111.444,117.445v65.098l-104.366-90.87c-2.959-2.577-7.305-2.773-10.484-0.476l-99.516,71.912l-96.15-159.429
	c-1.292-2.144-3.47-3.602-5.944-3.983c-2.473-0.378-4.989,0.357-6.866,2.012L64.278,269.67c-3.496,3.083-3.83,8.416-0.747,11.912
	c3.083,3.494,8.415,3.828,11.912,0.747l70.113-61.836l95.663,158.621c1.219,2.021,3.228,3.44,5.541,3.911
	c2.311,0.474,4.716-0.046,6.629-1.429l101.518-73.358L465.3,404.36v90.761H17.441V333.484l35.04-30.903
	c3.495-3.083,3.83-8.417,0.747-11.912c-3.082-3.496-8.416-3.83-11.912-0.747l-23.874,21.057v-99.879L146.236,88.848L256.091,247.06
	c2.504,3.608,7.359,4.694,11.158,2.491l27.002-15.624c4.035-2.334,5.414-7.497,3.078-11.531c-2.333-4.035-7.495-5.414-11.531-3.078
	l-20.275,11.732L154.492,71.144c-1.404-2.023-3.621-3.331-6.071-3.583c-2.445-0.25-4.886,0.581-6.672,2.274L17.442,187.827v-52.089
	c0-4.662-3.779-8.44-8.44-8.44s-8.44,3.778-8.44,8.44v71.735v122.201V503.56c0,4.662,3.779,8.44,8.44,8.44h464.738h29.257
	c4.662,0,8.44-3.778,8.44-8.44S507.66,495.121,502.998,495.121z"/>
<g>
</g>
<g>
</g>
<g>
</g>
<g>
</g>
<g>
</g>
<g>
</g>
<g>
</g>
<g>
</g>
<g>
</g>
<g>
</g>
<g>
</g>
<g>
</g>
<g>
</g>
<g>
</g>
<g>
</g>
</svg>
